<?xml version="1.0" encoding="utf-8"?>
<!-- Generator: Adobe Illustrator 19.0.1, SVG Export Plug-In . SVG Version: 6.00 Build 0)  -->
<svg version="1.1" id="svg2" xmlns="http://www.w3.org/2000/svg" xmlns:xlink="http://www.w3.org/1999/xlink" x="0px" y="0px"
	 viewBox="778.5 743.5 468 695.7" style="enable-background:new 778.5 743.5 468 695.7;" xml:space="preserve">
<style type="text/css">
	.st0{fill:none;stroke:#9bd665;stroke-width:9;stroke-miterlimit:10;}
	.st1{fill:#9bd665;}
</style>
<path class="st0" d="M1012.5,1289.4c-35.5,17.7-132.5,42.8-198.8-35.7c-66.3-78.5-4.6-167.7-4.6-167.7s-78-133,62.7-206.4
	C890.2,748,1012.5,748,1012.5,748s122.3,0,140.7,131.5c140.7,73.4,62.7,206.4,62.7,206.4s61.7,89.2-4.6,167.7
	C1145,1332.2,1048,1307,1012.5,1289.4z"/>
<polyline class="st1" points="1012.1,942.6 995.7,1089 942.9,1051.6 993.4,1122.7 984.2,1201.4 911.6,1157.8 978.8,1255.7 
	957.4,1439.2 1012.5,1438.8 1067.5,1439.2 1046.1,1255.7 1113.4,1157.8 1040.8,1201.4 1031.6,1122.7 1082.1,1051.6 1029.3,1089 
	1012.9,942.6 "/>
</svg>
