<?xml version="1.0" encoding="utf-8"?>
<!-- Generator: Adobe Illustrator 16.0.0, SVG Export Plug-In . SVG Version: 6.00 Build 0)  -->
<!DOCTYPE svg PUBLIC "-//W3C//DTD SVG 1.1//EN" "http://www.w3.org/Graphics/SVG/1.1/DTD/svg11.dtd">
<svg version="1.1" id="svg2" xmlns="http://www.w3.org/2000/svg" xmlns:xlink="http://www.w3.org/1999/xlink" x="0px" y="0px"
	 width="161px" height="233.712px" viewBox="777.5 663.5 161 233.712" enable-background="new 777.5 663.5 161 233.712"
	 xml:space="preserve">
<path fill="none" stroke="#FFFFFF" stroke-width="3" stroke-miterlimit="10" d="M858.035,848.212c-11.609,5.776-43.333,14-65-11.666
	s-1.5-54.834-1.5-54.834s-25.5-43.5,20.5-67.5c6-43,46-43,46-43s40,0,46,43c46,24,20.5,67.5,20.5,67.5s20.167,29.168-1.5,54.834
	S869.645,853.988,858.035,848.212z"/>
<polyline fill="#FFFFFF" points="857.91,734.837 852.535,782.712 835.285,770.462 851.785,793.712 848.785,819.462 825.035,805.212 
	847.035,837.212 840.035,897.212 858.035,897.087 876.035,897.212 869.035,837.212 891.035,805.212 867.285,819.462 
	864.285,793.712 880.785,770.462 863.535,782.712 858.16,734.837 "/>
</svg>
