<?xml version="1.0" encoding="utf-8"?>
<!-- Generator: Adobe Illustrator 19.0.1, SVG Export Plug-In . SVG Version: 6.00 Build 0)  -->
<svg version="1.1" id="Calque_1" xmlns="http://www.w3.org/2000/svg" xmlns:xlink="http://www.w3.org/1999/xlink" x="0px" y="0px"
	 viewBox="0 0 18.7 11.1" style="enable-background:new 0 0 18.7 11.1;" xml:space="preserve">
<style type="text/css">
	.st0{opacity:0.8;fill:#FFFFFF;}
</style>
<path class="st0" d="M16.3,4.8H2.4C1.1,4.8,0,3.7,0,2.4v0C0,1.1,1.1,0,2.4,0h13.9c1.3,0,2.4,1.1,2.4,2.4v0
	C18.7,3.7,17.6,4.8,16.3,4.8z"/>
<path class="st0" d="M16.3,11.1H2.4C1.1,11.1,0,10.1,0,8.7v0c0-1.3,1.1-2.4,2.4-2.4h13.9c1.3,0,2.4,1.1,2.4,2.4v0
	C18.7,10.1,17.6,11.1,16.3,11.1z"/>
</svg>
